<mxfile host="65bd71144e">
    <diagram id="fZ2v4ZQwoP33o_TBNRTP" name="Page-1">
        <mxGraphModel dx="1357" dy="1018" grid="1" gridSize="7" guides="1" tooltips="1" connect="1" arrows="1" fold="1" page="1" pageScale="1" pageWidth="4000" pageHeight="4681" math="0" shadow="0">
            <root>
                <mxCell id="0"/>
                <mxCell id="1" parent="0"/>
                <mxCell id="2" value="" style="edgeStyle=none;html=1;rounded=1;strokeColor=#66FFFF;shadow=0;" edge="1" parent="1" source="3" target="7">
                    <mxGeometry relative="1" as="geometry"/>
                </mxCell>
                <mxCell id="3" value="" style="ellipse;whiteSpace=wrap;html=1;rounded=1;strokeColor=#36393d;shadow=0;fillColor=#cdeb8b;" vertex="1" parent="1">
                    <mxGeometry x="100" y="10" width="120" height="80" as="geometry"/>
                </mxCell>
                <mxCell id="4" value="" style="edgeStyle=none;html=1;rounded=1;strokeColor=#66FFFF;shadow=0;" edge="1" parent="1" source="5" target="9">
                    <mxGeometry relative="1" as="geometry"/>
                </mxCell>
                <mxCell id="5" value="" style="rounded=1;whiteSpace=wrap;html=1;strokeColor=#001DBC;shadow=0;fillColor=#0050ef;fontColor=#ffffff;" vertex="1" parent="1">
                    <mxGeometry x="100" y="210" width="120" height="60" as="geometry"/>
                </mxCell>
                <mxCell id="6" value="" style="edgeStyle=none;html=1;rounded=1;strokeColor=#66FFFF;shadow=0;" edge="1" parent="1" source="7" target="5">
                    <mxGeometry relative="1" as="geometry"/>
                </mxCell>
                <mxCell id="7" value="" style="rounded=1;whiteSpace=wrap;html=1;strokeColor=#001DBC;shadow=0;fillColor=#0050ef;fontColor=#ffffff;" vertex="1" parent="1">
                    <mxGeometry x="100" y="120" width="120" height="60" as="geometry"/>
                </mxCell>
                <mxCell id="8" value="" style="edgeStyle=none;html=1;rounded=1;strokeColor=#66FFFF;shadow=0;" edge="1" parent="1" source="9" target="10">
                    <mxGeometry relative="1" as="geometry"/>
                </mxCell>
                <mxCell id="9" value="" style="rounded=1;whiteSpace=wrap;html=1;strokeColor=#001DBC;shadow=0;fillColor=#0050ef;fontColor=#ffffff;" vertex="1" parent="1">
                    <mxGeometry x="100" y="300" width="120" height="60" as="geometry"/>
                </mxCell>
                <mxCell id="10" value="" style="ellipse;whiteSpace=wrap;html=1;rounded=1;strokeColor=#36393d;shadow=0;fillColor=#cdeb8b;" vertex="1" parent="1">
                    <mxGeometry x="100" y="390" width="120" height="80" as="geometry"/>
                </mxCell>
                <mxCell id="11" value="" style="edgeStyle=none;html=1;rounded=1;strokeColor=#66FFFF;shadow=0;" edge="1" parent="1" source="12" target="14">
                    <mxGeometry relative="1" as="geometry"/>
                </mxCell>
                <mxCell id="12" value="" style="ellipse;whiteSpace=wrap;html=1;rounded=1;strokeColor=#36393d;shadow=0;fillColor=#cdeb8b;" vertex="1" parent="1">
                    <mxGeometry x="430" y="20" width="120" height="80" as="geometry"/>
                </mxCell>
                <mxCell id="13" value="" style="edgeStyle=none;html=1;rounded=1;strokeColor=#66FFFF;shadow=0;" edge="1" parent="1" source="14">
                    <mxGeometry relative="1" as="geometry">
                        <mxPoint x="489.9999999999998" y="220" as="targetPoint"/>
                    </mxGeometry>
                </mxCell>
                <mxCell id="14" value="" style="rounded=1;whiteSpace=wrap;html=1;strokeColor=#001DBC;shadow=0;fillColor=#0050ef;fontColor=#ffffff;" vertex="1" parent="1">
                    <mxGeometry x="430" y="130" width="120" height="60" as="geometry"/>
                </mxCell>
                <mxCell id="15" style="edgeStyle=none;html=1;entryX=1;entryY=0.5;entryDx=0;entryDy=0;exitX=0.5;exitY=1;exitDx=0;exitDy=0;rounded=1;strokeColor=#66FFFF;shadow=0;" edge="1" parent="1" target="21" source="22">
                    <mxGeometry relative="1" as="geometry">
                        <Array as="points">
                            <mxPoint x="620" y="430"/>
                        </Array>
                        <mxPoint x="616" y="469" as="sourcePoint"/>
                    </mxGeometry>
                </mxCell>
                <mxCell id="16" value="" style="ellipse;whiteSpace=wrap;html=1;rounded=1;strokeColor=#36393d;shadow=0;fillColor=#cdeb8b;" vertex="1" parent="1">
                    <mxGeometry x="432.5" y="470" width="120" height="80" as="geometry"/>
                </mxCell>
                <mxCell id="17" style="edgeStyle=none;html=1;entryX=0.5;entryY=0;entryDx=0;entryDy=0;rounded=1;strokeColor=#66FFFF;shadow=0;" edge="1" parent="1" source="19" target="22">
                    <mxGeometry relative="1" as="geometry">
                        <Array as="points">
                            <mxPoint x="617" y="265"/>
                        </Array>
                        <mxPoint x="623" y="308" as="targetPoint"/>
                    </mxGeometry>
                </mxCell>
                <mxCell id="18" value="" style="edgeStyle=none;html=1;rounded=1;strokeColor=#66FFFF;shadow=0;" edge="1" parent="1" source="19" target="21">
                    <mxGeometry relative="1" as="geometry"/>
                </mxCell>
                <mxCell id="19" value="" style="html=1;whiteSpace=wrap;aspect=fixed;shape=isoRectangle;rounded=1;strokeColor=#C73500;shadow=0;fillColor=#fa6800;fontColor=#000000;" vertex="1" parent="1">
                    <mxGeometry x="415" y="222" width="150" height="90" as="geometry"/>
                </mxCell>
                <mxCell id="20" value="" style="edgeStyle=none;html=1;rounded=1;strokeColor=#66FFFF;shadow=0;" edge="1" parent="1" source="21" target="16">
                    <mxGeometry relative="1" as="geometry"/>
                </mxCell>
                <mxCell id="21" value="" style="shape=sumEllipse;perimeter=ellipsePerimeter;whiteSpace=wrap;html=1;backgroundOutline=1;rounded=1;strokeColor=#66FFFF;shadow=0;" vertex="1" parent="1">
                    <mxGeometry x="480" y="417.5" width="25" height="25" as="geometry"/>
                </mxCell>
                <mxCell id="22" value="" style="whiteSpace=wrap;html=1;rounded=1;strokeColor=#001DBC;shadow=0;fillColor=#0050ef;fontColor=#ffffff;" vertex="1" parent="1">
                    <mxGeometry x="560" y="343" width="120" height="60" as="geometry"/>
                </mxCell>
                <mxCell id="35" value="" style="edgeStyle=none;html=1;rounded=1;strokeColor=#66FFFF;shadow=0;" edge="1" source="36" target="38" parent="1">
                    <mxGeometry relative="1" as="geometry"/>
                </mxCell>
                <mxCell id="36" value="" style="ellipse;whiteSpace=wrap;html=1;rounded=1;strokeColor=#36393d;shadow=0;fillColor=#cdeb8b;" vertex="1" parent="1">
                    <mxGeometry x="883" y="20" width="120" height="80" as="geometry"/>
                </mxCell>
                <mxCell id="37" value="" style="edgeStyle=none;html=1;rounded=1;strokeColor=#66FFFF;shadow=0;" edge="1" source="38" parent="1">
                    <mxGeometry relative="1" as="geometry">
                        <mxPoint x="942.9999999999998" y="222" as="targetPoint"/>
                    </mxGeometry>
                </mxCell>
                <mxCell id="38" value="" style="rounded=1;whiteSpace=wrap;html=1;strokeColor=#001DBC;shadow=0;fillColor=#0050ef;fontColor=#ffffff;" vertex="1" parent="1">
                    <mxGeometry x="883" y="132" width="120" height="60" as="geometry"/>
                </mxCell>
                <mxCell id="39" style="edgeStyle=none;html=1;entryX=1;entryY=0.5;entryDx=0;entryDy=0;exitX=0.5;exitY=1;exitDx=0;exitDy=0;rounded=1;strokeColor=#66FFFF;shadow=0;" edge="1" source="46" target="45" parent="1">
                    <mxGeometry relative="1" as="geometry">
                        <Array as="points">
                            <mxPoint x="1073" y="432"/>
                        </Array>
                        <mxPoint x="1069" y="471" as="sourcePoint"/>
                    </mxGeometry>
                </mxCell>
                <mxCell id="40" value="" style="ellipse;whiteSpace=wrap;html=1;rounded=1;strokeColor=#36393d;shadow=0;fillColor=#cdeb8b;" vertex="1" parent="1">
                    <mxGeometry x="885.5" y="472" width="120" height="80" as="geometry"/>
                </mxCell>
                <mxCell id="41" style="edgeStyle=none;html=1;entryX=0.5;entryY=0;entryDx=0;entryDy=0;rounded=1;strokeColor=#66FFFF;shadow=0;" edge="1" source="43" target="46" parent="1">
                    <mxGeometry relative="1" as="geometry">
                        <Array as="points">
                            <mxPoint x="1070" y="267"/>
                        </Array>
                        <mxPoint x="1076" y="310" as="targetPoint"/>
                    </mxGeometry>
                </mxCell>
                <mxCell id="42" value="" style="edgeStyle=none;html=1;rounded=1;strokeColor=#66FFFF;shadow=0;" edge="1" source="43" target="45" parent="1">
                    <mxGeometry relative="1" as="geometry"/>
                </mxCell>
                <mxCell id="49" style="edgeStyle=none;sketch=0;html=1;shadow=0;strokeColor=#66FFFF;entryX=0.5;entryY=0;entryDx=0;entryDy=0;" edge="1" parent="1" source="43" target="48">
                    <mxGeometry relative="1" as="geometry">
                        <mxPoint x="812" y="267" as="targetPoint"/>
                        <Array as="points">
                            <mxPoint x="807" y="267"/>
                        </Array>
                    </mxGeometry>
                </mxCell>
                <mxCell id="43" value="" style="html=1;whiteSpace=wrap;aspect=fixed;shape=isoRectangle;rounded=1;strokeColor=#C73500;shadow=0;fillColor=#fa6800;fontColor=#000000;" vertex="1" parent="1">
                    <mxGeometry x="868" y="222" width="150" height="90" as="geometry"/>
                </mxCell>
                <mxCell id="44" value="" style="edgeStyle=none;html=1;rounded=1;strokeColor=#66FFFF;shadow=0;" edge="1" source="45" target="40" parent="1">
                    <mxGeometry relative="1" as="geometry"/>
                </mxCell>
                <mxCell id="45" value="" style="shape=sumEllipse;perimeter=ellipsePerimeter;whiteSpace=wrap;html=1;backgroundOutline=1;rounded=1;strokeColor=#66FFFF;shadow=0;" vertex="1" parent="1">
                    <mxGeometry x="933" y="419.5" width="25" height="25" as="geometry"/>
                </mxCell>
                <mxCell id="46" value="" style="whiteSpace=wrap;html=1;rounded=1;strokeColor=#001DBC;shadow=0;fillColor=#0050ef;fontColor=#ffffff;" vertex="1" parent="1">
                    <mxGeometry x="1013" y="345" width="120" height="60" as="geometry"/>
                </mxCell>
                <mxCell id="50" style="edgeStyle=none;sketch=0;html=1;exitX=0.5;exitY=1;exitDx=0;exitDy=0;shadow=0;strokeColor=#66FFFF;entryX=0;entryY=0.5;entryDx=0;entryDy=0;" edge="1" parent="1" source="48" target="45">
                    <mxGeometry relative="1" as="geometry">
                        <mxPoint x="806.7058823529412" y="462" as="targetPoint"/>
                        <Array as="points">
                            <mxPoint x="807" y="432"/>
                        </Array>
                    </mxGeometry>
                </mxCell>
                <mxCell id="48" value="" style="whiteSpace=wrap;html=1;rounded=1;strokeColor=#001DBC;shadow=0;fillColor=#0050ef;fontColor=#ffffff;" vertex="1" parent="1">
                    <mxGeometry x="748" y="345" width="120" height="60" as="geometry"/>
                </mxCell>
                <mxCell id="52" value="" style="edgeStyle=none;html=1;rounded=1;strokeColor=#66FFFF;shadow=0;" edge="1" source="53" target="55" parent="1">
                    <mxGeometry relative="1" as="geometry"/>
                </mxCell>
                <mxCell id="53" value="" style="ellipse;whiteSpace=wrap;html=1;rounded=1;strokeColor=#36393d;shadow=0;fillColor=#cdeb8b;" vertex="1" parent="1">
                    <mxGeometry x="1415" y="6" width="120" height="80" as="geometry"/>
                </mxCell>
                <mxCell id="54" value="" style="edgeStyle=none;html=1;rounded=1;strokeColor=#66FFFF;shadow=0;" edge="1" source="55" parent="1">
                    <mxGeometry relative="1" as="geometry">
                        <mxPoint x="1474.9999999999998" y="208" as="targetPoint"/>
                    </mxGeometry>
                </mxCell>
                <mxCell id="55" value="" style="rounded=1;whiteSpace=wrap;html=1;strokeColor=#001DBC;shadow=0;fillColor=#0050ef;fontColor=#ffffff;" vertex="1" parent="1">
                    <mxGeometry x="1415" y="118" width="120" height="60" as="geometry"/>
                </mxCell>
                <mxCell id="57" value="" style="ellipse;whiteSpace=wrap;html=1;rounded=1;strokeColor=#36393d;shadow=0;fillColor=#cdeb8b;" vertex="1" parent="1">
                    <mxGeometry x="1415" y="621" width="120" height="80" as="geometry"/>
                </mxCell>
                <mxCell id="58" style="edgeStyle=none;html=1;rounded=1;strokeColor=#66FFFF;shadow=0;entryX=0.488;entryY=0.067;entryDx=0;entryDy=0;entryPerimeter=0;" edge="1" source="61" target="68" parent="1">
                    <mxGeometry relative="1" as="geometry">
                        <Array as="points">
                            <mxPoint x="1596" y="253"/>
                        </Array>
                        <mxPoint x="1596" y="299" as="targetPoint"/>
                    </mxGeometry>
                </mxCell>
                <mxCell id="60" style="edgeStyle=none;sketch=0;html=1;shadow=0;strokeColor=#66FFFF;entryX=0.5;entryY=0;entryDx=0;entryDy=0;" edge="1" source="61" parent="1" target="66">
                    <mxGeometry relative="1" as="geometry">
                        <mxPoint x="1340" y="306" as="targetPoint"/>
                        <Array as="points">
                            <mxPoint x="1339" y="253"/>
                        </Array>
                    </mxGeometry>
                </mxCell>
                <mxCell id="61" value="" style="html=1;whiteSpace=wrap;aspect=fixed;shape=isoRectangle;rounded=1;strokeColor=#C73500;shadow=0;fillColor=#fa6800;fontColor=#000000;" vertex="1" parent="1">
                    <mxGeometry x="1400" y="208" width="150" height="90" as="geometry"/>
                </mxCell>
                <mxCell id="62" value="" style="edgeStyle=none;html=1;rounded=1;strokeColor=#66FFFF;shadow=0;" edge="1" source="63" target="57" parent="1">
                    <mxGeometry relative="1" as="geometry"/>
                </mxCell>
                <mxCell id="63" value="" style="shape=sumEllipse;perimeter=ellipsePerimeter;whiteSpace=wrap;html=1;backgroundOutline=1;rounded=1;strokeColor=#66FFFF;shadow=0;" vertex="1" parent="1">
                    <mxGeometry x="1462.5" y="551" width="25" height="25" as="geometry"/>
                </mxCell>
                <mxCell id="65" style="edgeStyle=none;sketch=0;html=1;shadow=0;strokeColor=#66FFFF;entryX=0;entryY=0.5;entryDx=0;entryDy=0;exitX=0.5;exitY=1;exitDx=0;exitDy=0;" edge="1" target="63" parent="1" source="66">
                    <mxGeometry relative="1" as="geometry">
                        <mxPoint x="1338.7058823529412" y="448" as="targetPoint"/>
                        <mxPoint x="1339" y="425" as="sourcePoint"/>
                        <Array as="points">
                            <mxPoint x="1339" y="418"/>
                            <mxPoint x="1339" y="564"/>
                        </Array>
                    </mxGeometry>
                </mxCell>
                <mxCell id="66" value="" style="whiteSpace=wrap;html=1;rounded=1;strokeColor=#001DBC;shadow=0;fillColor=#0050ef;fontColor=#ffffff;" vertex="1" parent="1">
                    <mxGeometry x="1280" y="331" width="120" height="60" as="geometry"/>
                </mxCell>
                <mxCell id="71" style="edgeStyle=none;sketch=0;html=1;shadow=0;strokeColor=#66FFFF;entryX=0.5;entryY=0;entryDx=0;entryDy=0;" edge="1" parent="1" source="68" target="69">
                    <mxGeometry relative="1" as="geometry">
                        <mxPoint x="1484" y="390" as="targetPoint"/>
                        <Array as="points">
                            <mxPoint x="1475" y="360"/>
                        </Array>
                    </mxGeometry>
                </mxCell>
                <mxCell id="72" style="edgeStyle=none;sketch=0;html=1;entryX=0.5;entryY=0;entryDx=0;entryDy=0;shadow=0;strokeColor=#66FFFF;" edge="1" parent="1" source="68">
                    <mxGeometry relative="1" as="geometry">
                        <mxPoint x="1719.9999999999995" y="397" as="targetPoint"/>
                        <Array as="points">
                            <mxPoint x="1722" y="360"/>
                        </Array>
                    </mxGeometry>
                </mxCell>
                <mxCell id="78" style="edgeStyle=none;sketch=0;html=1;entryX=0.5;entryY=0;entryDx=0;entryDy=0;shadow=0;strokeColor=#66FFFF;" edge="1" parent="1" source="68" target="73">
                    <mxGeometry relative="1" as="geometry"/>
                </mxCell>
                <mxCell id="68" value="" style="html=1;whiteSpace=wrap;aspect=fixed;shape=isoRectangle;rounded=1;strokeColor=#C73500;shadow=0;fillColor=#fa6800;fontColor=#000000;" vertex="1" parent="1">
                    <mxGeometry x="1535" y="322" width="125" height="75" as="geometry"/>
                </mxCell>
                <mxCell id="77" style="edgeStyle=none;sketch=0;html=1;entryX=0;entryY=0.5;entryDx=0;entryDy=0;shadow=0;strokeColor=#66FFFF;" edge="1" parent="1" source="69" target="73">
                    <mxGeometry relative="1" as="geometry">
                        <Array as="points">
                            <mxPoint x="1475" y="509"/>
                        </Array>
                    </mxGeometry>
                </mxCell>
                <mxCell id="69" value="" style="whiteSpace=wrap;html=1;rounded=1;strokeColor=#001DBC;shadow=0;fillColor=#0050ef;fontColor=#ffffff;" vertex="1" parent="1">
                    <mxGeometry x="1415" y="397" width="120" height="60" as="geometry"/>
                </mxCell>
                <mxCell id="75" style="edgeStyle=none;sketch=0;html=1;entryX=1;entryY=0.5;entryDx=0;entryDy=0;shadow=0;strokeColor=#66FFFF;" edge="1" parent="1" target="73">
                    <mxGeometry relative="1" as="geometry">
                        <mxPoint x="1720.731707317073" y="457" as="sourcePoint"/>
                        <Array as="points">
                            <mxPoint x="1722" y="509"/>
                        </Array>
                    </mxGeometry>
                </mxCell>
                <mxCell id="70" value="" style="whiteSpace=wrap;html=1;rounded=1;strokeColor=#001DBC;shadow=0;fillColor=#0050ef;fontColor=#ffffff;" vertex="1" parent="1">
                    <mxGeometry x="1660" y="397" width="120" height="60" as="geometry"/>
                </mxCell>
                <mxCell id="79" style="edgeStyle=none;sketch=0;html=1;exitX=0.5;exitY=1;exitDx=0;exitDy=0;shadow=0;strokeColor=#66FFFF;entryX=1;entryY=0.5;entryDx=0;entryDy=0;" edge="1" parent="1" source="73" target="63">
                    <mxGeometry relative="1" as="geometry">
                        <mxPoint x="1602" y="565" as="targetPoint"/>
                        <Array as="points">
                            <mxPoint x="1602" y="565"/>
                        </Array>
                    </mxGeometry>
                </mxCell>
                <mxCell id="73" value="" style="shape=sumEllipse;perimeter=ellipsePerimeter;whiteSpace=wrap;html=1;backgroundOutline=1;rounded=1;strokeColor=#66FFFF;shadow=0;" vertex="1" parent="1">
                    <mxGeometry x="1589" y="495" width="25" height="25" as="geometry"/>
                </mxCell>
                <mxCell id="85" style="edgeStyle=none;sketch=0;html=1;entryX=0.5;entryY=0;entryDx=0;entryDy=0;shadow=0;strokeColor=#66FFFF;" edge="1" parent="1" source="80" target="83">
                    <mxGeometry relative="1" as="geometry">
                        <Array as="points">
                            <mxPoint x="2191" y="336"/>
                        </Array>
                    </mxGeometry>
                </mxCell>
                <mxCell id="88" style="edgeStyle=none;sketch=0;html=1;entryX=0;entryY=0.5;entryDx=0;entryDy=0;shadow=0;strokeColor=#66FFFF;" edge="1" parent="1" source="80" target="86">
                    <mxGeometry relative="1" as="geometry">
                        <Array as="points">
                            <mxPoint x="1904" y="336"/>
                            <mxPoint x="1904" y="63"/>
                        </Array>
                    </mxGeometry>
                </mxCell>
                <mxCell id="80" value="" style="html=1;whiteSpace=wrap;aspect=fixed;shape=isoRectangle;rounded=1;strokeColor=#C73500;shadow=0;fillColor=#fa6800;fontColor=#000000;" vertex="1" parent="1">
                    <mxGeometry x="1960" y="294" width="150" height="90" as="geometry"/>
                </mxCell>
                <mxCell id="82" style="edgeStyle=none;sketch=0;html=1;exitX=0.5;exitY=1;exitDx=0;exitDy=0;entryX=0.506;entryY=0.025;entryDx=0;entryDy=0;entryPerimeter=0;shadow=0;strokeColor=#66FFFF;" edge="1" parent="1" source="81" target="80">
                    <mxGeometry relative="1" as="geometry"/>
                </mxCell>
                <mxCell id="81" value="" style="rounded=1;whiteSpace=wrap;html=1;strokeColor=#001DBC;shadow=0;fillColor=#0050ef;fontColor=#ffffff;" vertex="1" parent="1">
                    <mxGeometry x="1975" y="196" width="120" height="60" as="geometry"/>
                </mxCell>
                <mxCell id="90" style="edgeStyle=none;sketch=0;html=1;exitX=0.5;exitY=1;exitDx=0;exitDy=0;entryX=0.5;entryY=0;entryDx=0;entryDy=0;shadow=0;strokeColor=#66FFFF;" edge="1" parent="1" source="83" target="89">
                    <mxGeometry relative="1" as="geometry"/>
                </mxCell>
                <mxCell id="83" value="" style="rounded=1;whiteSpace=wrap;html=1;strokeColor=#001DBC;shadow=0;fillColor=#0050ef;fontColor=#ffffff;" vertex="1" parent="1">
                    <mxGeometry x="2128" y="364" width="120" height="60" as="geometry"/>
                </mxCell>
                <mxCell id="87" style="edgeStyle=none;sketch=0;html=1;exitX=0.5;exitY=1;exitDx=0;exitDy=0;entryX=0.5;entryY=0;entryDx=0;entryDy=0;shadow=0;strokeColor=#66FFFF;" edge="1" parent="1" source="86" target="81">
                    <mxGeometry relative="1" as="geometry"/>
                </mxCell>
                <mxCell id="86" value="" style="ellipse;whiteSpace=wrap;html=1;rounded=1;strokeColor=#36393d;shadow=0;fillColor=#cdeb8b;" vertex="1" parent="1">
                    <mxGeometry x="1975" y="20" width="120" height="80" as="geometry"/>
                </mxCell>
                <mxCell id="89" value="" style="ellipse;whiteSpace=wrap;html=1;rounded=1;strokeColor=#36393d;shadow=0;fillColor=#cdeb8b;" vertex="1" parent="1">
                    <mxGeometry x="2128" y="497" width="120" height="80" as="geometry"/>
                </mxCell>
                <mxCell id="91" style="edgeStyle=none;sketch=0;html=1;entryX=0.5;entryY=0;entryDx=0;entryDy=0;shadow=0;strokeColor=#66FFFF;" edge="1" source="93" target="97" parent="1">
                    <mxGeometry relative="1" as="geometry">
                        <Array as="points">
                            <mxPoint x="2728" y="337"/>
                        </Array>
                    </mxGeometry>
                </mxCell>
                <mxCell id="102" style="edgeStyle=none;sketch=0;html=1;entryX=0.5;entryY=1;entryDx=0;entryDy=0;shadow=0;strokeColor=#66FFFF;" edge="1" parent="1" source="93" target="101">
                    <mxGeometry relative="1" as="geometry">
                        <Array as="points">
                            <mxPoint x="2452" y="340"/>
                        </Array>
                    </mxGeometry>
                </mxCell>
                <mxCell id="93" value="" style="html=1;whiteSpace=wrap;aspect=fixed;shape=isoRectangle;rounded=1;strokeColor=#C73500;shadow=0;fillColor=#fa6800;fontColor=#000000;" vertex="1" parent="1">
                    <mxGeometry x="2497" y="295" width="150" height="90" as="geometry"/>
                </mxCell>
                <mxCell id="96" style="edgeStyle=none;sketch=0;html=1;exitX=0.5;exitY=1;exitDx=0;exitDy=0;entryX=0.5;entryY=0;entryDx=0;entryDy=0;shadow=0;strokeColor=#66FFFF;" edge="1" source="97" target="100" parent="1">
                    <mxGeometry relative="1" as="geometry"/>
                </mxCell>
                <mxCell id="97" value="" style="rounded=1;whiteSpace=wrap;html=1;strokeColor=#001DBC;shadow=0;fillColor=#0050ef;fontColor=#ffffff;" vertex="1" parent="1">
                    <mxGeometry x="2665" y="365" width="120" height="60" as="geometry"/>
                </mxCell>
                <mxCell id="98" style="edgeStyle=none;sketch=0;html=1;exitX=0.5;exitY=1;exitDx=0;exitDy=0;entryX=0.509;entryY=-0.005;entryDx=0;entryDy=0;shadow=0;strokeColor=#66FFFF;entryPerimeter=0;" edge="1" source="99" target="93" parent="1">
                    <mxGeometry relative="1" as="geometry">
                        <mxPoint x="2572" y="197" as="targetPoint"/>
                    </mxGeometry>
                </mxCell>
                <mxCell id="99" value="" style="ellipse;whiteSpace=wrap;html=1;rounded=1;strokeColor=#36393d;shadow=0;fillColor=#cdeb8b;" vertex="1" parent="1">
                    <mxGeometry x="2512" y="21" width="120" height="80" as="geometry"/>
                </mxCell>
                <mxCell id="100" value="" style="ellipse;whiteSpace=wrap;html=1;rounded=1;strokeColor=#36393d;shadow=0;fillColor=#cdeb8b;" vertex="1" parent="1">
                    <mxGeometry x="2665" y="498" width="120" height="80" as="geometry"/>
                </mxCell>
                <mxCell id="103" style="edgeStyle=none;sketch=0;html=1;exitX=0.5;exitY=0;exitDx=0;exitDy=0;entryX=0;entryY=0.5;entryDx=0;entryDy=0;shadow=0;strokeColor=#66FFFF;" edge="1" parent="1" source="101" target="99">
                    <mxGeometry relative="1" as="geometry">
                        <Array as="points">
                            <mxPoint x="2450" y="61"/>
                        </Array>
                    </mxGeometry>
                </mxCell>
                <mxCell id="101" value="" style="rounded=1;whiteSpace=wrap;html=1;strokeColor=#001DBC;shadow=0;fillColor=#0050ef;fontColor=#ffffff;" vertex="1" parent="1">
                    <mxGeometry x="2392" y="188" width="120" height="60" as="geometry"/>
                </mxCell>
                <mxCell id="118" style="edgeStyle=none;sketch=0;html=1;exitX=0.5;exitY=1;exitDx=0;exitDy=0;entryX=0.5;entryY=0;entryDx=0;entryDy=0;shadow=0;strokeColor=#66FFFF;" edge="1" parent="1" source="104" target="105">
                    <mxGeometry relative="1" as="geometry"/>
                </mxCell>
                <mxCell id="104" value="" style="ellipse;whiteSpace=wrap;html=1;rounded=1;strokeColor=#36393d;shadow=0;fillColor=#cdeb8b;" vertex="1" parent="1">
                    <mxGeometry x="3339" y="42" width="140" height="77" as="geometry"/>
                </mxCell>
                <mxCell id="109" style="edgeStyle=none;sketch=0;html=1;exitX=0.5;exitY=1;exitDx=0;exitDy=0;entryX=0.487;entryY=0.03;entryDx=0;entryDy=0;entryPerimeter=0;shadow=0;strokeColor=#66FFFF;" edge="1" parent="1" source="105" target="107">
                    <mxGeometry relative="1" as="geometry">
                        <Array as="points"/>
                    </mxGeometry>
                </mxCell>
                <mxCell id="110" style="edgeStyle=none;sketch=0;html=1;exitX=0;exitY=0.5;exitDx=0;exitDy=0;entryX=0.507;entryY=0.052;entryDx=0;entryDy=0;entryPerimeter=0;shadow=0;strokeColor=#66FFFF;" edge="1" parent="1" source="105" target="106">
                    <mxGeometry relative="1" as="geometry">
                        <Array as="points">
                            <mxPoint x="3135" y="240"/>
                        </Array>
                    </mxGeometry>
                </mxCell>
                <mxCell id="111" style="edgeStyle=none;sketch=0;html=1;exitX=1;exitY=0.5;exitDx=0;exitDy=0;entryX=0.533;entryY=0.048;entryDx=0;entryDy=0;entryPerimeter=0;shadow=0;strokeColor=#66FFFF;" edge="1" parent="1" source="105" target="108">
                    <mxGeometry relative="1" as="geometry">
                        <Array as="points">
                            <mxPoint x="3694" y="238"/>
                        </Array>
                    </mxGeometry>
                </mxCell>
                <mxCell id="105" value="" style="rounded=1;whiteSpace=wrap;html=1;strokeColor=#001DBC;shadow=0;fillColor=#0050ef;fontColor=#ffffff;" vertex="1" parent="1">
                    <mxGeometry x="3293.5" y="205" width="231" height="70" as="geometry"/>
                </mxCell>
                <mxCell id="116" style="edgeStyle=none;sketch=0;html=1;entryX=1;entryY=0.5;entryDx=0;entryDy=0;shadow=0;strokeColor=#66FFFF;" edge="1" parent="1" source="106" target="112">
                    <mxGeometry relative="1" as="geometry"/>
                </mxCell>
                <mxCell id="106" value="" style="html=1;whiteSpace=wrap;aspect=fixed;shape=isoRectangle;rounded=1;strokeColor=#C73500;shadow=0;fillColor=#fa6800;fontColor=#000000;" vertex="1" parent="1">
                    <mxGeometry x="3059" y="365" width="150" height="90" as="geometry"/>
                </mxCell>
                <mxCell id="115" style="edgeStyle=none;sketch=0;html=1;entryX=1;entryY=0.5;entryDx=0;entryDy=0;shadow=0;strokeColor=#66FFFF;" edge="1" parent="1" source="107" target="113">
                    <mxGeometry relative="1" as="geometry"/>
                </mxCell>
                <mxCell id="107" value="" style="html=1;whiteSpace=wrap;aspect=fixed;shape=isoRectangle;rounded=1;strokeColor=#C73500;shadow=0;fillColor=#fa6800;fontColor=#000000;" vertex="1" parent="1">
                    <mxGeometry x="3334" y="367" width="150" height="90" as="geometry"/>
                </mxCell>
                <mxCell id="117" style="edgeStyle=none;sketch=0;html=1;entryX=1;entryY=0.5;entryDx=0;entryDy=0;shadow=0;strokeColor=#66FFFF;" edge="1" parent="1" source="108" target="114">
                    <mxGeometry relative="1" as="geometry"/>
                </mxCell>
                <mxCell id="108" value="" style="html=1;whiteSpace=wrap;aspect=fixed;shape=isoRectangle;rounded=1;strokeColor=#C73500;shadow=0;fillColor=#fa6800;fontColor=#000000;" vertex="1" parent="1">
                    <mxGeometry x="3619" y="360" width="150" height="90" as="geometry"/>
                </mxCell>
                <mxCell id="121" style="edgeStyle=none;sketch=0;html=1;exitX=0;exitY=0.5;exitDx=0;exitDy=0;entryX=0;entryY=0.5;entryDx=0;entryDy=0;shadow=0;strokeColor=#66FFFF;" edge="1" parent="1" source="112" target="123">
                    <mxGeometry relative="1" as="geometry">
                        <mxPoint x="3331.4999999999754" y="941.4999999999998" as="targetPoint"/>
                        <Array as="points">
                            <mxPoint x="3134" y="941"/>
                        </Array>
                    </mxGeometry>
                </mxCell>
                <mxCell id="112" value="" style="rounded=1;whiteSpace=wrap;html=1;strokeColor=#001DBC;shadow=0;fillColor=#0050ef;fontColor=#ffffff;rotation=-90;" vertex="1" parent="1">
                    <mxGeometry x="3018.5" y="567" width="231" height="147" as="geometry"/>
                </mxCell>
                <mxCell id="120" style="edgeStyle=none;sketch=0;html=1;exitX=0;exitY=0.5;exitDx=0;exitDy=0;entryX=0.5;entryY=0;entryDx=0;entryDy=0;shadow=0;strokeColor=#66FFFF;" edge="1" parent="1" source="113" target="123">
                    <mxGeometry relative="1" as="geometry">
                        <mxPoint x="3412.5" y="895.9999999999998" as="targetPoint"/>
                    </mxGeometry>
                </mxCell>
                <mxCell id="113" value="" style="rounded=1;whiteSpace=wrap;html=1;strokeColor=#001DBC;shadow=0;fillColor=#0050ef;fontColor=#ffffff;rotation=-90;" vertex="1" parent="1">
                    <mxGeometry x="3293.5" y="567" width="231" height="147" as="geometry"/>
                </mxCell>
                <mxCell id="122" style="edgeStyle=none;sketch=0;html=1;exitX=0;exitY=0.5;exitDx=0;exitDy=0;entryX=1;entryY=0.5;entryDx=0;entryDy=0;shadow=0;strokeColor=#66FFFF;" edge="1" parent="1" source="114" target="123">
                    <mxGeometry relative="1" as="geometry">
                        <mxPoint x="3493.5000000000236" y="941.4999999999998" as="targetPoint"/>
                        <Array as="points">
                            <mxPoint x="3703" y="952"/>
                        </Array>
                    </mxGeometry>
                </mxCell>
                <mxCell id="114" value="" style="rounded=1;whiteSpace=wrap;html=1;strokeColor=#001DBC;shadow=0;fillColor=#0050ef;fontColor=#ffffff;rotation=-90;" vertex="1" parent="1">
                    <mxGeometry x="3584" y="560" width="231" height="147" as="geometry"/>
                </mxCell>
                <mxCell id="125" style="edgeStyle=none;sketch=0;html=1;exitX=0.5;exitY=1;exitDx=0;exitDy=0;entryX=0.5;entryY=0;entryDx=0;entryDy=0;shadow=0;strokeColor=#66FFFF;" edge="1" parent="1" source="123" target="124">
                    <mxGeometry relative="1" as="geometry"/>
                </mxCell>
                <mxCell id="123" value="" style="shape=sumEllipse;perimeter=ellipsePerimeter;whiteSpace=wrap;html=1;backgroundOutline=1;rounded=1;strokeColor=#66FFFF;shadow=0;" vertex="1" parent="1">
                    <mxGeometry x="3402" y="931" width="25" height="25" as="geometry"/>
                </mxCell>
                <mxCell id="124" value="" style="ellipse;whiteSpace=wrap;html=1;rounded=1;strokeColor=#36393d;shadow=0;fillColor=#cdeb8b;" vertex="1" parent="1">
                    <mxGeometry x="3354.5" y="1043" width="120" height="80" as="geometry"/>
                </mxCell>
            </root>
        </mxGraphModel>
    </diagram>
</mxfile>